:SAMPLES-PER-SECOND 30
:FULLY-SPECIFIED
:DEGREES
1471
root  -73.1365 38.685 -14.3312 14.105 -17.5576 -1.25946
RightUpLeg  -22.3384 -13.9382 5.61146
RightLeg  29.2228 -0.743708 -0.691887
RightFoot  -21.4472 -0.230586 -0.958445
RightToes  5.82063e-011 0 -3.6325e-017
Spine  29.2246 1.68177 1.55143
Spine1  5.29883 7.26592 -26.3038
HEad  -76.0804 20.3409 -5.57852
LeftShoulder1  1.25961 -0.929362 -22.016
LeftArm  0.199542 -47.7124 -55.4879
LeftForeArm  -33.3547 5.49939 -7.75516
LeftHand  0.280589 13.4673 4.74514
RightShoulder  0.381347 3.01958 -2.97683
RightArm  19.1506 75.1337 85.7212
RightForeArm  -9.31098 -2.38035 0.137381
RightHand  -0.423141 5.29107 -4.94374
LeftUpLeg  -42.4196 -20.2792 13.0225
LeftLeg  13.6269 -20.6327 -4.17297
LeftFoot  10.4096 0.332011 -2.06232
LeftToes  -1.20963e-009 8.6283e-011 2.04439e-011
1472
root  -73.2594 38.8227 -14.5682 15.8146 -17.4377 -2.12732
RightUpLeg  -23.4396 -14.3182 7.34674
RightLeg  27.3214 -0.141381 -0.3154
RightFoot  -19.9208 -0.241475 -1.42953
RightToes  5.82063e-011 0 -3.6325e-017
Spine  29.5088 2.7483 1.43872
Spine1  6.31626 8.3991 -25.0323
HEad  -77.1333 19.75 -7.5793
LeftShoulder1  1.56203 -1.58415 -24.5149
LeftArm  -5.26405 -34.8709 -48.8349
LeftForeArm  -24.714 1.27115 -6.86611
LeftHand  0.0619401 10.8684 2.5814
RightShoulder  0.599756 2.91844 1.01641
RightArm  26.7984 69.7542 91.3347
RightForeArm  -4.00955 -5.54298 1.98439
RightHand  -0.317813 3.45611 -4.34672
LeftUpLeg  -41.2072 -13.1862 9.67009
LeftLeg  10.7639 -24.8729 -2.03206
LeftFoot  10.8585 0.438182 -2.57238
LeftToes  -1.20963e-009 8.6283e-011 2.04439e-011
1473
root  -73.3303 38.933 -14.7086 16.2494 -16.454 -2.33655
RightUpLeg  -23.4572 -14.9398 8.14439
RightLeg  25.9744 -0.408405 -0.448153
RightFoot  -18.982 -0.261975 -1.98782
RightToes  5.82063e-011 0 -3.6325e-017
Spine  29.8285 3.23349 1.09744
Spine1  7.96344 9.03775 -24.0177
HEad  -78.2038 19.3578 -8.47768
LeftShoulder1  1.88944 -2.87639 -23.402
LeftArm  -7.48545 -22.1808 -45.031
LeftForeArm  -17.3391 -0.16867 -6.3897
LeftHand  0.0924928 10.2875 3.36437
RightShoulder  0.758812 2.52646 4.80785
RightArm  19.6014 64.9755 81.5573
RightForeArm  7.44588 -5.8952 3.34523
RightHand  -0.0764868 2.65586 -1.35745
LeftUpLeg  -40.1092 -7.3415 6.72984
LeftLeg  8.14673 -23.2434 -0.17207
LeftFoot  11.1693 0.534061 -3.03455
LeftToes  -1.20963e-009 8.6283e-011 2.04439e-011
1474
root  -73.426 39.0279 -14.7606 16.2645 -14.9004 -2.51074
RightUpLeg  -22.8715 -15.2868 8.72587
RightLeg  24.7224 -1.33046 -0.900523
RightFoot  -18.4183 -0.219338 -1.53496
RightToes  5.82063e-011 0 -3.6325e-017
Spine  29.8108 3.36785 1.22855
Spine1  9.35238 9.63143 -23.5718
HEad  -77.6748 19.4998 -9.05357
LeftShoulder1  2.21115 -4.28933 -22.0086
LeftArm  -9.23009 -10.6276 -42.7359
LeftForeArm  -13.4781 2.55781 -5.21238
LeftHand  0.0967516 10.3296 3.35301
RightShoulder  0.930637 2.00387 9.50556
RightArm  22.1824 58.0234 81.5703
RightForeArm  16.1077 -5.93267 5.11237
RightHand  0.0812001 3.64472 0.764384
LeftUpLeg  -39.2071 -2.54128 4.83966
LeftLeg  6.23965 -20.5397 0.460414
LeftFoot  10.1021 0.835635 -4.74188
LeftToes  -1.20963e-009 8.6283e-011 2.04439e-011
1475
root  -73.5085 39.1213 -14.5784 16.1205 -11.8414 -2.06305
RightUpLeg  -22.0636 -17.5038 8.85583
RightLeg  23.6589 -2.03121 -1.21397
RightFoot  -18.3483 -0.193738 -1.13968
RightToes  5.82063e-011 0 -3.6325e-017
Spine  29.527 3.10939 1.54306
Spine1  10.2534 9.23218 -21.6663
HEad  -76.2762 19.8319 -10.3378
LeftShoulder1  2.57086 -5.52524 -22.196
LeftArm  -9.68909 -0.280098 -40.0236
LeftForeArm  -14.2986 6.21604 -4.65952
LeftHand  0.235561 13.6552 4.19602
RightShoulder  1.06818 2.15094 11.8346
RightArm  18.9567 50.4996 77.3728
RightForeArm  21.4725 -5.33412 5.7353
RightHand  0.156177 4.58343 1.53716
LeftUpLeg  -38.6977 -0.537498 3.73856
LeftLeg  5.42378 -15.5633 0.134182
LeftFoot  8.48644 0.79537 -4.83932
LeftToes  -1.20963e-009 8.6283e-011 2.04439e-011
1476
root  -73.5802 39.2827 -14.3056 15.8236 -8.79412 -0.958923
RightUpLeg  -20.7089 -19.3383 8.05132
RightLeg  22.0136 -3.21234 -1.57673
RightFoot  -18.2437 -0.161581 -0.629807
RightToes  5.82063e-011 0 -3.6325e-017
Spine  29.3566 2.5539 2.01788
Spine1  10.3098 8.96069 -22.1724
HEad  -74.9141 19.5673 -9.07565
LeftShoulder1  2.8761 -6.86393 -21.3744
LeftArm  -10.6372 10.2279 -36.5731
LeftForeArm  -18.1937 6.08208 -3.72243
LeftHand  0.478447 16.1556 5.86441
RightShoulder  0.997819 0.657887 17.9454
RightArm  17.3221 43.8302 73.3946
RightForeArm  25.6999 -4.94508 6.52856
RightHand  0.15029 3.04039 1.84218
LeftUpLeg  -37.5436 -0.0502898 2.57561
LeftLeg  4.32968 -6.53179 0.477208
LeftFoot  6.98527 0.475625 -3.18965
LeftToes  -1.20963e-009 8.6283e-011 2.04439e-011
1477
root  -73.5871 39.5053 -13.9253 15.7345 -6.20029 0.149719
RightUpLeg  -18.6997 -20.374 6.55398
RightLeg  19.4633 -4.9048 -1.23344
RightFoot  -17.7422 -0.117845 0.0387407
RightToes  5.82063e-011 0 -3.6325e-017
Spine  28.0689 2.68704 1.49048
Spine1  11.2133 8.89281 -20.7757
HEad  -74.2396 19.0564 -8.49071
LeftShoulder1  2.59684 -5.73322 -21.7842
LeftArm  -10.8531 17.6743 -33.2514
LeftForeArm  -22.9993 4.86724 -3.06314
LeftHand  0.873335 16.5112 9.66357
RightShoulder  0.569462 -1.60757 23.371
RightArm  16.5273 37.8535 70.0874
RightForeArm  29.331 -4.50545 7.16247
RightHand  0.170807 2.66535 2.25752
LeftUpLeg  -35.9741 0.170838 1.52413
LeftLeg  3.35855 4.96796 0.84213
LeftFoot  4.88626 0.169129 -1.41032
LeftToes  -1.20963e-009 8.6283e-011 2.04439e-011
1478
root  -73.4544 39.6876 -13.3897 15.8752 -3.11175 1.3642
RightUpLeg  -16.4095 -19.899 4.01088
RightLeg  17.1799 -8.5725 -0.313561
RightFoot  -17.3629 -0.0622403 1.05668
RightToes  5.82063e-011 0 -3.6325e-017
Spine  26.5724 2.35185 2.06726
Spine1  11.393 8.60696 -20.3387
HEad  -73.0682 17.9201 -7.4052
LeftShoulder1  2.42275 -4.9681 -22.2862
LeftArm  -10.3245 23.8107 -28.9742
LeftForeArm  -23.5327 2.35224 -2.7745
LeftHand  0.739395 14.5602 9.94089
RightShoulder  0.559569 -1.68115 25.3225
RightArm  13.9511 30.6566 65.4588
RightForeArm  27.938 -2.855 6.91693
RightHand  0.176896 2.40202 2.43248
LeftUpLeg  -34.1333 0.0306417 0.253714
LeftLeg  1.89057 15.1691 0.459448
LeftFoot  4.03034 0.0886554 -0.845611
LeftToes  -1.20963e-009 8.6283e-011 2.04439e-011
1479
root  -73.3003 39.8234 -12.7362 16.2838 -0.307522 2.44958
RightUpLeg  -14.0278 -17.4476 1.38853
RightLeg  14.9544 -13.7554 0.608529
RightFoot  -16.9859 -0.00145593 2.29212
RightToes  5.82063e-011 0 -3.6325e-017
Spine  23.8879 2.54693 1.90893
Spine1  11.8727 8.32387 -18.6153
HEad  -71.4832 17.1996 -6.73356
LeftShoulder1  2.32481 -4.70636 -21.9886
LeftArm  -9.83702 28.9614 -26.2102
LeftForeArm  -22.5869 -0.00297593 -2.52487
LeftHand  0.669481 14.4715 9.17898
RightShoulder  0.102355 -3.18561 27.873
RightArm  12.1182 24.0893 62.3552
RightForeArm  27.859 -1.46058 6.55887
RightHand  0.0687795 1.49672 1.01361
LeftUpLeg  -32.3133 0.593938 -0.869607
LeftLeg  0.2387 22.0303 -1.26478
LeftFoot  3.43454 0.124255 -1.11767
LeftToes  -1.20963e-009 8.6283e-011 2.04439e-011
1480
root  -73.053 39.9062 -12.0174 15.9807 2.40711 3.83252
RightUpLeg  -11.3942 -17.3082 -1.17561
RightLeg  13.9402 -16.4278 1.09404
RightFoot  -17.1124 0.0969779 4.22423
RightToes  5.82063e-011 0 -3.6325e-017
Spine  22.2561 2.50289 1.30957
Spine1  11.2943 7.67589 -17.2313
HEad  -69.6828 16.5948 -5.35248
LeftShoulder1  2.18484 -4.48851 -20.945
LeftArm  -9.45884 33.1869 -24.4011
LeftForeArm  -20.4838 -2.37514 -2.32973
LeftHand  0.520378 13.7488 7.92279
RightShoulder  0.0734226 -3.26426 28.4178
RightArm  10.4643 17.2519 59.4187
RightForeArm  25.8089 0.376593 6.14091
RightHand  0.00803979 1.03631 0.0487193
LeftUpLeg  -29.9534 -0.418367 -2.56516
LeftLeg  -1.09471 26.9746 -1.93086
LeftFoot  3.79111 0.0978128 -0.903878
LeftToes  -1.20963e-009 8.6283e-011 2.04439e-011
1481
root  -72.6935 39.9392 -11.2525 15.6119 4.92614 4.99811
RightUpLeg  -9.42252 -21.0884 -2.98072
RightLeg  14.516 -14.7605 0.89235
RightFoot  -17.2278 0.211072 6.36344
RightToes  5.82063e-011 0 -3.6325e-017
Spine  20.1032 2.19549 1.02799
Spine1  11.2248 7.10994 -16.3289
HEad  -68.0964 15.8874 -4.04482
LeftShoulder1  2.05593 -4.16921 -20.3673
LeftArm  -9.14618 34.9133 -23.0928
LeftForeArm  -18.8396 -3.58573 -2.24219
LeftHand  0.387062 13.2467 6.51769
RightShoulder  0.0480402 -3.33609 28.5243
RightArm  8.10082 11.6805 57.5129
RightForeArm  23.8197 1.14498 5.25489
RightHand  0.0107306 1.6709 0.0188379
LeftUpLeg  -27.8169 -1.97693 -4.46242
LeftLeg  -2.19466 26.6947 -2.10004
LeftFoot  5.03011 0.0132118 -0.323942
LeftToes  -1.20963e-009 8.6283e-011 2.04439e-011
1482
root  -72.2435 39.9505 -10.4586 14.8822 7.01012 6.0769
RightUpLeg  -7.73714 -29.0815 -4.65016
RightLeg  16.3955 -8.17726 -0.00634279
RightFoot  -17.333 0.373935 9.35965
RightToes  5.82063e-011 0 -3.6325e-017
Spine  18.0025 1.88335 0.795004
Spine1  11.3375 6.82057 -15.9509
HEad  -66.696 15.0452 -2.62621
LeftShoulder1  2.03801 -4.10685 -20.3351
LeftArm  -9.06382 34.2181 -22.7108
LeftForeArm  -18.3676 -3.19368 -2.26524
LeftHand  0.456724 13.8079 7.06444
RightShoulder  -0.111848 -3.79285 29.1974
RightArm  7.65894 8.34816 55.2135
RightForeArm  22.9706 1.2491 5.10007
RightHand  0.000816101 0.757355 -0.0622022
LeftUpLeg  -25.9783 -3.63379 -6.60819
LeftLeg  -1.59281 24.6429 -1.22345
LeftFoot  5.7547 -0.340034 2.04186
LeftToes  -1.20963e-009 8.6283e-011 2.04439e-011
